<svg xmlns="http://www.w3.org/2000/svg" xmlns:xlink="http://www.w3.org/1999/xlink" width="637.277" height="648.874" viewBox="0 0 637.277 648.874">
  <defs>
    <linearGradient id="linear-gradient" x1="0.5" y1="1" x2="0.5" gradientUnits="objectBoundingBox">
      <stop offset="0" stop-color="#779dea"/>
      <stop offset="0.1" stop-color="#91b0ee"/>
      <stop offset="0.23" stop-color="#adc3f2"/>
      <stop offset="0.38" stop-color="#c2d3f6"/>
      <stop offset="0.54" stop-color="#d1def8"/>
      <stop offset="0.72" stop-color="#dae4fa"/>
      <stop offset="1" stop-color="#dde6fa"/>
    </linearGradient>
    <linearGradient id="linear-gradient-2" x1="0.536" y1="1.306" x2="-0.362" y2="1.033" gradientUnits="objectBoundingBox">
      <stop offset="0" stop-color="#9cb7f0"/>
      <stop offset="0.03" stop-color="#9fb9f1"/>
      <stop offset="0.26" stop-color="#bacdf5"/>
      <stop offset="0.5" stop-color="#cedbf8"/>
      <stop offset="0.75" stop-color="#d9e3f9"/>
      <stop offset="1" stop-color="#dde6fa"/>
    </linearGradient>
    <linearGradient id="linear-gradient-3" y1="0.5" x2="1" y2="0.5" gradientUnits="objectBoundingBox">
      <stop offset="0" stop-color="#dde6fa"/>
      <stop offset="0.17" stop-color="#d8e2f9"/>
      <stop offset="0.39" stop-color="#c8d7f7"/>
      <stop offset="0.62" stop-color="#afc5f3"/>
      <stop offset="0.88" stop-color="#8babed"/>
      <stop offset="1" stop-color="#779dea"/>
    </linearGradient>
    <linearGradient id="linear-gradient-4" x1="0.5" y1="1" x2="0.5" gradientUnits="objectBoundingBox">
      <stop offset="0" stop-color="#4e54c8"/>
      <stop offset="1" stop-color="#8f94fb"/>
    </linearGradient>
    <linearGradient id="linear-gradient-5" x1="-0.01" y1="0.5" y2="0.5" xlink:href="#linear-gradient-3"/>
    <linearGradient id="linear-gradient-6" x1="-0.01" y1="0.5" y2="0.5" xlink:href="#linear-gradient-3"/>
    <linearGradient id="linear-gradient-7" x1="0.5" y1="1" x2="0.5" gradientUnits="objectBoundingBox">
      <stop offset="0" stop-color="#fff"/>
      <stop offset="0.13" stop-color="#d2fae9"/>
      <stop offset="0.29" stop-color="#a3f4d1"/>
      <stop offset="0.43" stop-color="#81f0c0"/>
      <stop offset="0.54" stop-color="#6ceeb6"/>
      <stop offset="0.62" stop-color="#64edb2"/>
    </linearGradient>
    <linearGradient id="linear-gradient-8" x1="0.5" y1="1" x2="0.5" gradientUnits="objectBoundingBox">
      <stop offset="0" stop-color="#fff"/>
      <stop offset="0.13" stop-color="#d2fae9"/>
      <stop offset="0.29" stop-color="#a3f4d1"/>
      <stop offset="0.43" stop-color="#81f0c0"/>
      <stop offset="0.54" stop-color="#6ceeb6"/>
      <stop offset="0.62" stop-color="#64edb2"/>
      <stop offset="1" stop-color="#64edb2" stop-opacity="0.2"/>
    </linearGradient>
    <linearGradient id="linear-gradient-9" x1="0" y1="0.5" x2="1" y2="0.5" xlink:href="#linear-gradient-7"/>
    <linearGradient id="linear-gradient-10" x1="0" y1="0.5" x2="1" y2="0.5" xlink:href="#linear-gradient-8"/>
    <linearGradient id="linear-gradient-11" x1="0.5" y1="1" x2="0.5" y2="0" xlink:href="#linear-gradient-7"/>
    <linearGradient id="linear-gradient-12" x1="-0.057" y1="0.744" x2="0.967" y2="0.239" gradientUnits="objectBoundingBox">
      <stop offset="0" stop-color="#123597"/>
      <stop offset="0.31" stop-color="#14389a"/>
      <stop offset="0.58" stop-color="#1940a5"/>
      <stop offset="0.83" stop-color="#224eb6"/>
      <stop offset="1" stop-color="#2a5bc7"/>
    </linearGradient>
    <linearGradient id="linear-gradient-13" x1="0" y1="0.5" x2="1" y2="0.5" xlink:href="#linear-gradient-12"/>
    <linearGradient id="linear-gradient-14" x1="0.001" y1="0.5" x2="1" y2="0.5" gradientUnits="objectBoundingBox">
      <stop offset="0" stop-color="#fb9f02"/>
      <stop offset="0.32" stop-color="#fb9f02"/>
      <stop offset="1" stop-color="#fc4c5c"/>
    </linearGradient>
    <linearGradient id="linear-gradient-15" x1="0" y1="0.5" y2="0.5" xlink:href="#linear-gradient-14"/>
    <linearGradient id="linear-gradient-16" x1="0.5" x2="0.5" xlink:href="#linear-gradient-4"/>
    <linearGradient id="linear-gradient-17" x1="0.5" x2="0.5" xlink:href="#linear-gradient-4"/>
    <linearGradient id="linear-gradient-18" x1="0.5" y1="1.001" x2="0.5" xlink:href="#linear-gradient-4"/>
    <linearGradient id="linear-gradient-19" x1="0.5" y1="0.999" x2="0.5" xlink:href="#linear-gradient-4"/>
    <linearGradient id="linear-gradient-20" x1="0" y1="0.5" x2="1" y2="0.5" xlink:href="#linear-gradient-12"/>
    <linearGradient id="linear-gradient-22" y1="0.497" x2="1" y2="0.497" gradientUnits="objectBoundingBox">
      <stop offset="0" stop-color="#123597"/>
      <stop offset="0.29" stop-color="#14389b"/>
      <stop offset="0.58" stop-color="#1a42a7"/>
      <stop offset="0.87" stop-color="#2452bc"/>
      <stop offset="1" stop-color="#2a5bc7"/>
    </linearGradient>
    <linearGradient id="linear-gradient-23" y1="0.499" x2="1" y2="0.499" gradientUnits="objectBoundingBox">
      <stop offset="0" stop-color="#779dea"/>
      <stop offset="0.12" stop-color="#8babed"/>
      <stop offset="0.38" stop-color="#afc5f3"/>
      <stop offset="0.61" stop-color="#c8d7f7"/>
      <stop offset="0.83" stop-color="#d8e2f9"/>
      <stop offset="1" stop-color="#dde6fa"/>
    </linearGradient>
    <linearGradient id="linear-gradient-24" x1="-0.001" y1="0.5" x2="1.271" y2="0.5" xlink:href="#linear-gradient-22"/>
    <linearGradient id="linear-gradient-25" x1="0" y1="0.5" y2="0.5" xlink:href="#linear-gradient-14"/>
    <linearGradient id="linear-gradient-26" x1="0" y1="0.5" x2="1" y2="0.5" xlink:href="#linear-gradient-4"/>
    <linearGradient id="linear-gradient-27" x1="-0.008" y1="0.499" x2="0.992" y2="0.499" xlink:href="#linear-gradient-3"/>
    <linearGradient id="linear-gradient-28" y1="0.5" x2="1" y2="0.5" gradientUnits="objectBoundingBox">
      <stop offset="0" stop-color="#366fe0"/>
      <stop offset="0.25" stop-color="#366fe0"/>
      <stop offset="0.45" stop-color="#2f63d1"/>
      <stop offset="0.84" stop-color="#1b43a9"/>
      <stop offset="1" stop-color="#123597"/>
    </linearGradient>
    <linearGradient id="linear-gradient-29" x1="0" y1="0.5" y2="0.5" xlink:href="#linear-gradient-14"/>
    <linearGradient id="linear-gradient-30" x1="0.5" y1="1" x2="0.5" y2="-0.001" xlink:href="#linear-gradient-28"/>
    <linearGradient id="linear-gradient-31" x1="0.5" y1="1" x2="0.5" gradientUnits="objectBoundingBox">
      <stop offset="0" stop-color="#8f94fb"/>
      <stop offset="1" stop-color="#4e54c8"/>
    </linearGradient>
    <linearGradient id="linear-gradient-32" x1="-0.001" y1="0.5" y2="0.5" xlink:href="#linear-gradient-28"/>
    <linearGradient id="linear-gradient-33" x1="0.024" y1="0.991" x2="0.976" y2="0.009" xlink:href="#linear-gradient-3"/>
    <linearGradient id="linear-gradient-34" x1="0" y1="0.5" y2="0.5" xlink:href="#linear-gradient-14"/>
    <linearGradient id="linear-gradient-35" x1="0.5" x2="0.5" xlink:href="#linear-gradient-4"/>
    <linearGradient id="linear-gradient-36" x1="0.5" y1="1" x2="0.5" gradientUnits="objectBoundingBox">
      <stop offset="0" stop-color="#4e54c8"/>
      <stop offset="0.22" stop-color="#555acd"/>
      <stop offset="0.53" stop-color="#676ddc"/>
      <stop offset="0.9" stop-color="#858af3"/>
      <stop offset="1" stop-color="#8f94fb"/>
    </linearGradient>
    <linearGradient id="linear-gradient-37" x1="0" y1="0.497" y2="0.497" xlink:href="#linear-gradient-3"/>
    <linearGradient id="linear-gradient-38" y1="0.5" y2="0.5" xlink:href="#linear-gradient-28"/>
    <linearGradient id="linear-gradient-40" x1="0" y1="0.5" y2="0.5" xlink:href="#linear-gradient-3"/>
    <linearGradient id="linear-gradient-41" x1="0.5" y1="1" x2="0.5" y2="-0.001" xlink:href="#linear-gradient-28"/>
    <linearGradient id="linear-gradient-42" x1="0" y1="0.501" y2="0.501" xlink:href="#linear-gradient-3"/>
    <linearGradient id="linear-gradient-44" x1="-0.004" y1="0.5" y2="0.5" xlink:href="#linear-gradient-3"/>
  </defs>
  <g id="_01_HEADER_ADV" data-name="01_HEADER_ADV" transform="translate(-0.51 -0.01)">
    <path id="Path" d="M572.485,195.227C561.945,328.977,383.165,507,276.865,433.5c-36.74-21.91-43.53-84.13-83.06-101.36-118.25-27.79-204.5,21.55-192.73-126.5C26.285-46.353,607.715-86.093,572.485,195.227Z" transform="translate(9.135 39.503)" fill="url(#linear-gradient)"/>
    <path id="Path-2" data-name="Path" d="M14.73.86S6.61,4.86,0,6.01L2.1,7.3a4,4,0,0,0,2.71.56l10-1.54a4,4,0,0,0,2.61-1.61L20.79,0l-6.1.9Z" transform="translate(218.19 123.14)" fill="#fff"/>
    <path id="Path-3" data-name="Path" d="M0,9.63,1.38,4.09s1.35,11.47-.64,18l2.28-2a3.94,3.94,0,0,0,1.29-2.4L5.75,7.59a4,4,0,0,0-.78-3L1.45,0Z" transform="translate(279.4 59.53)" fill="#fff"/>
    <circle id="Oval" cx="63.42" cy="63.42" r="63.42" transform="translate(154.22 0.01)" fill="#fff"/>
    <path id="Path-4" data-name="Path" d="M4.34,2.628A7.46,7.46,0,0,0,.65,5.278c-.93,1.54-.67,3.48-.39,5.26A1.37,1.37,0,0,0,1.92,12H7.01a9.81,9.81,0,0,0,3.54-.41c2-.75,3.26-2.68,4.24-4.57C20.24-3.4,10.02.2,4.34,2.628Z" transform="translate(229.76 104.732)" fill="url(#linear-gradient-2)"/>
    <path id="Path-5" data-name="Path" d="M.069,11.226a7.37,7.37,0,0,0,.81,4.5c1,1.5,2.86,2.1,4.58,2.61a1.88,1.88,0,0,0,1.3.05,1.86,1.86,0,0,0,.74-.93l2.2-4.58a9.75,9.75,0,0,0,1.14-3.37c.18-2.12-1-4.1-2.3-5.8C1.429-5.7.279,5.046.069,11.226Z" transform="translate(260.721 50.274)" fill="#dde6fa"/>
    <path id="Path-6" data-name="Path" d="M4.17,8.663a9.08,9.08,0,0,0,2.6-2c4.78-5.33,2.66-9.32-2.77-4.49C1.55,4.353-3.71,12.613,4.17,8.663Z" transform="translate(256.99 82.037)" fill="#dde6fa"/>
    <path id="Path-7" data-name="Path" d="M9.828.789a10.31,10.31,0,0,0-9.26.68,1.18,1.18,0,0,0-.56.63,1.26,1.26,0,0,0,.13.71,37.92,37.92,0,0,0,1.73,3.71A4.78,4.78,0,0,0,3.058,8.1a4.92,4.92,0,0,0,2,.73c2.84.58,5.84,1.14,8.6.25s3.81-1.81,2.05-4.11A14.28,14.28,0,0,0,9.828.789Z" transform="translate(200.842 106.751)" fill="#dde6fa"/>
    <path id="Path-8" data-name="Path" d="M3.228.981a5.92,5.92,0,0,0-3.21,4.26.65.65,0,0,0,.07.48.61.61,0,0,0,.35.21,20,20,0,0,0,2.26.65,2.55,2.55,0,0,0,1.13.08,2.73,2.73,0,0,0,1.08-.59,9.78,9.78,0,0,0,3.35-3.63c.68-1.59.65-2.33-1-2.44a8.16,8.16,0,0,0-4.03.98Z" transform="translate(232.492 84.149)" fill="#dde6fa"/>
    <rect id="Rectangle" width="204.84" height="133.53" rx="12.55" transform="translate(229.984 318.163) rotate(-0.08)" fill="#fff"/>
    <path id="Path-9" data-name="Path" d="M204.85,12.54v1.67L0,14.5V12.83A12.55,12.55,0,0,1,12.54.26L192.27,0a12.56,12.56,0,0,1,12.58,12.54Z" transform="translate(230 317.88)" fill="url(#linear-gradient-3)"/>
    <circle id="Oval-2" data-name="Oval" cx="1.79" cy="1.79" r="1.79" transform="translate(238.49 323.46)" fill="#f2f2f2"/>
    <circle id="Oval-3" data-name="Oval" cx="1.79" cy="1.79" r="1.79" transform="translate(247.55 323.45)" fill="#f2f2f2"/>
    <circle id="Oval-4" data-name="Oval" cx="1.79" cy="1.79" r="1.79" transform="translate(256.61 323.44)" fill="#f2f2f2"/>
    <rect id="Rectangle-2" data-name="Rectangle" width="71.8" height="32.24" rx="4.34" transform="translate(311.853 346.198) rotate(-0.08)" fill="#dde6fa"/>
    <rect id="Rectangle-3" data-name="Rectangle" width="60.4" height="3.03" rx="1.51" transform="translate(317.564 353.79) rotate(-0.08)" fill="#fff"/>
    <rect id="Rectangle-4" data-name="Rectangle" width="118.48" height="35.43" rx="5.85" transform="translate(311.507 392.369) rotate(-0.08)" fill="#dde6fa"/>
    <path id="Path-10" data-name="Path" d="M.01,20.26l102.88-.14V0l-2.42,3.72-7.62,5.6s-7,1.6-7.47,1.42L75.96,6.95l-8-1.5-6.8,2.23L55.85,10.8l-6.47-.52-6.47-2.3L36.27,4.71l-10.26.28L16.23,7.57,5.86,13.8,0,19.13Z" transform="translate(317.45 399.2)" fill="url(#linear-gradient-4)"/>
    <path id="Shape" d="M0,14.92v-.1H1v.1Zm0-1.33V12.35H1v1.24Zm0-2.47V9.88H1v1.24ZM0,8.65V7.41H1V8.65ZM0,6.18V4.94H1V6.18ZM0,3.71V2.47H1V3.71ZM0,1.24V0H1V1.24Z" transform="translate(386.58 404.45)" fill="url(#linear-gradient-5)"/>
    <path id="Shape-2" data-name="Shape" d="M0,14.91v-.09H1v.09Zm0-1.33V12.35H1v1.23Zm0-2.47V9.88H1V11.11ZM0,8.64V7.41H1V8.64ZM0,6.17V4.94H1V6.17ZM0,3.7V2.49H1V3.7ZM0,1.23V0H1V1.23Z" transform="translate(347.85 404.51)" fill="url(#linear-gradient-6)"/>
    <path id="Path-11" data-name="Path" d="M.829,20.556a.79.79,0,0,1-.58-.25.91.91,0,0,1,0-1.25c3.45-3.81,16.11-16.18,34.39-15.49,3.54.13,6.31,1.7,9,3.22,3.31,1.88,6.43,3.65,11.07,3.14a17.7,17.7,0,0,0,7.51-2.7,15.93,15.93,0,0,1,8.7-2.65h.06a17.92,17.92,0,0,1,9.38,2.73c2.21,1.18,4.31,2.3,7.45,2.3h0c5.2,0,10.58-3.14,16-9.32A.81.81,0,0,1,105,.236a.94.94,0,0,1,.05,1.26c-5.74,6.55-11.53,9.88-17.22,9.89h0a16.24,16.24,0,0,1-8.21-2.5c-2.46-1.31-4.78-2.56-8.68-2.54a14.41,14.41,0,0,0-7.96,2.47,19,19,0,0,1-8.13,2.9c-5.16.57-8.66-1.41-12.05-3.33-2.62-1.49-5.1-2.9-8.24-3-17.58-.65-29.8,11.27-33.12,14.94a.81.81,0,0,1-.61.23Z" transform="translate(316.021 399.184)" fill="#f2f2f2"/>
    <path id="Path-12" data-name="Path" d="M.415,2.4,4.865.072a.76.76,0,0,1,1.08.76l-.33,5.11a.75.75,0,0,1-1.15.61L.345,3.772A.81.81,0,0,1,.415,2.4Z" transform="translate(417.335 395.818)" fill="#f2f2f2"/>
    <path id="Path-13" data-name="Path" d="M21.382,10.426V18.1c0,.7-.37,1.69.4,2s1.27-.57,1.76-1.05c3.6-3.58,7.17-7.2,10.74-10.82,2.35-2.38,2.27-2.34,4.29.47a21.31,21.31,0,0,1-11.72,33.29,19.86,19.86,0,0,1-15.47-1.68c-9-5-12.64-12.92-11-22.9,1.22-7.32,5.79-12.64,12.73-15.76a22.41,22.41,0,0,1,6.1-1.59c1.8-.27,2.22.45,2.21,2C21.382,4.826,21.382,7.626,21.382,10.426Z" transform="translate(250.618 361.174)" fill="#dde6fa"/>
    <path id="Path-14" data-name="Path" d="M.63,20.283a2.86,2.86,0,0,1-.58-2.16c0-5.28,0-10.55-.05-15.83C0,.593.52-.047,2.28,0a16.93,16.93,0,0,1,11.35,4.59c1.12,1,1.12,1.82.05,2.86C9.33,11.673,5.03,15.943.63,20.283Z" transform="translate(273.51 357.937)" fill="#64edff"/>
    <circle id="Oval-5" data-name="Oval" cx="14.1" cy="14.1" r="14.1" transform="translate(394.81 348.83)" fill="#2fdd96"/>
    <path id="Shape-3" data-name="Shape" d="M3.67,14.38V12.856A5.307,5.307,0,0,1,1.3,12.04V12.1A2.921,2.921,0,0,1,0,9.66H1.44a2.329,2.329,0,0,0,.77,1.44,3.935,3.935,0,0,0,1.46.508V7.648L3.47,7.6A5.454,5.454,0,0,1,1.11,6.51a2.49,2.49,0,0,1-.82-2A2.761,2.761,0,0,1,1.4,2.2a4.43,4.43,0,0,1,2.27-.84V0h1V1.36a4.272,4.272,0,0,1,2.26.861A2.939,2.939,0,0,1,8.12,4.58H6.68A1.9,1.9,0,0,0,5.9,3.13a2.864,2.864,0,0,0-1.23-.468V6.441l.24.059A6.022,6.022,0,0,1,7.38,7.6a2.521,2.521,0,0,1,.86,2A2.733,2.733,0,0,1,7.03,12.04a5.3,5.3,0,0,1-2.36.815V14.38Zm1-2.762A3.935,3.935,0,0,0,6.21,11.1,1.681,1.681,0,0,0,6.8,9.79a1.574,1.574,0,0,0-.43-1.14A3.469,3.469,0,0,0,4.71,7.9l-.04-.01ZM2.36,3.18a1.593,1.593,0,0,0-.63,1.23,1.514,1.514,0,0,0,.44,1.07,3.123,3.123,0,0,0,1.5.718V2.651A2.705,2.705,0,0,0,2.36,3.18Z" transform="translate(404.79 355.74)" fill="#fff"/>
    <path id="Path-15" data-name="Path" d="M99.45,46.845c-5.14,23.11-23.48,28.25-58.7,18.34S0,25.525,0,25.525s19.45-36.27,28.62-22.34a33,33,0,0,0,3.12,4.06c9.43,10.5,24,12.76,42.37,9.15a31.62,31.62,0,0,1,13.81-.08C98.81,19.085,103.25,29.725,99.45,46.845Z" transform="translate(537 306.275)" fill="url(#linear-gradient-7)"/>
    <path id="Path-16" data-name="Path" d="M70.15,9.07c-1,4.85-4.06,14.05-12.81,17.82a23.3,23.3,0,0,1-12,1.46,34,34,0,0,1-3.71-.61C14.63,21.94,0,8.6,0,8.6L13.94,0A30.57,30.57,0,0,0,26.79,8.48a37,37,0,0,0,4,1.15c7.33,1.64,15.88,1.36,25.46-.52A31.62,31.62,0,0,1,70.15,9.07Z" transform="translate(554.85 313.52)" fill="#2fdd96"/>
    <path id="Path-17" data-name="Path" d="M3.664,0l30.56,40.48a19.74,19.74,0,0,1-4.95,28.41L8.7,82.34S-6.886,4.44,3.664,0Z" transform="translate(565.196 173.23)" fill="#2fdd96"/>
    <path id="Path-18" data-name="Path" d="M59.03,27.73a61.26,61.26,0,0,1-5.68,10.11c-4.44,6.43-11.39,13.83-20.53,15.24S19.89,63.52,18.46,71.22a7.92,7.92,0,0,1-1.3,3.14A8.35,8.35,0,0,1,6.34,76.97,12.06,12.06,0,0,1,0,66.36a12.23,12.23,0,0,1,.41-3.1L3.68,51.04A45.73,45.73,0,0,1,19.24,27.2L53.24,0Z" transform="translate(393.76 252.48)" fill="url(#linear-gradient-8)"/>
    <path id="Path-19" data-name="Path" d="M36.407.037c-4.44,6.43-11.39,13.83-20.53,15.24s-12.93,10.44-14.36,18.14a7.92,7.92,0,0,1-1.3,3.14c-.52-5.78-.6-17,5.67-22.1,8.66-7,15.33-5.69,21.84-10.74C31.3.967,34.357-.233,36.407.037Z" transform="translate(410.703 290.283)" fill="#2fdd96"/>
    <path id="Path-20" data-name="Path" d="M111.963,224.505c-38.77,11.74-76.09-1.06-96.4-31a91.53,91.53,0,0,1-14.28-36.65c-.36-2.17-.65-4.75-.87-7.68-1.38-18.72.46-51.78,9.23-82a152.51,152.51,0,0,1,12.55-31.16q1.08-2,2.23-3.85a91.66,91.66,0,0,1,5.36-7.89c10.1-13.32,23.3-22.5,40.37-24,26-2.27,49.15,8.57,61.26,67.26S164.063,208.735,111.963,224.505Z" transform="translate(437.177 104.405)" fill="url(#linear-gradient-9)"/>
    <path id="Path-21" data-name="Path" d="M1.81,20.08c-.61.14-1.21.25-1.81.37A89,89,0,0,0,12.25,47.66l.05.06S36.22,26.43,55.22,0A206,206,0,0,1,1.81,20.08Z" transform="translate(440.49 250.22)" fill="#2fdd96"/>
    <path id="Path-22" data-name="Path" d="M188.177.588s-20.64-3.31-40.44,5.77-76,18-100.7,15.69c-20.61-1.93-27.6.46-38.19,18.86-6.26,10.87-16.73,19.55.87,22.58,3.65.63,7.21-.65,10.74-3a.26.26,0,0,0,.09-.05c13.52-9.08,19.4-16.81,35.29-12.24,15.47,4.45,25.71,17,46.41,19a70.77,70.77,0,0,0,21.82-1.63,203.11,203.11,0,0,0,64.11-26.41" transform="translate(318.233 204.792)" fill="url(#linear-gradient-10)"/>
    <path id="Path-23" data-name="Path" d="M52.336,4.04c-3.13,2.63-6.33,10.56-7.62,20.25-1.58,11.9-.27,26.44,7.62,37,9.26,12.31,21.4,31.12,23.79,47.81,1.3,9.1-.32,17.59-6.92,24.06C50.5,151.5,5.746,142.7.616,79.23S24.086,0,24.086,0" transform="translate(465.264 312.4)" fill="url(#linear-gradient-11)"/>
    <path id="Path-24" data-name="Path" d="M.108,25.882c1.35-6.64,4.65-17.31,12.47-23.18a13.47,13.47,0,0,1,18.93,2.77l.2.28a12.66,12.66,0,0,1-3,17.47c-5.79,4.22-14.19,8.9-23.18,9.12a5.39,5.39,0,0,1-5.42-6.46Z" transform="translate(476.332 144.919)" fill="url(#linear-gradient-12)"/>
    <path id="Path-25" data-name="Path" d="M13.28,6.76C12.14,13.84,9.46,23.07,3.23,29.55A5.34,5.34,0,0,1,0,31.16,152.51,152.51,0,0,1,12.55,0,12.63,12.63,0,0,1,13.28,6.76Z" transform="translate(446.82 140.37)" fill="url(#linear-gradient-13)"/>
    <path id="Path-26" data-name="Path" d="M26.257,47.44s-10.44,21.1-17.19,12.29a48.82,48.82,0,0,1-6.61-11A32.79,32.79,0,0,1,.527,30.42a49.35,49.35,0,0,1,2.9-10.22c1-2.61,2-5,3-7.19,7.1-15.78,12.56-19.17,11.89.9-.07,2.19-.21,4.67-.44,7.44a40.25,40.25,0,0,0-.07,5.78,32.16,32.16,0,0,0,5.93,17.4A18.61,18.61,0,0,0,26.257,47.44Z" transform="translate(473.403 58.43)" fill="url(#linear-gradient-14)"/>
    <path id="Path-27" data-name="Path" d="M49.21,27.461c-.33,3.69-.89,7.9-1.7,12.68a82.25,82.25,0,0,1-4.4,16.36,55.92,55.92,0,0,1-9.57,16.35c-5.63,6.53-10.62,8.56-10.62,8.56C5.86,80.861,0,63.8,0,63.8s4.47-3.07,10.3-7.86a145.45,145.45,0,0,0,13.24-12.21,67.78,67.78,0,0,0,9.69-12.57,51.58,51.58,0,0,0,2.79-5.7c5.92-14.15,4.49-27.06,7.11-25.3C46.99,2.761,50.93,8.461,49.21,27.461Z" transform="translate(523.46 53.069)" fill="url(#linear-gradient-15)"/>
    <path id="Path-28" data-name="Path" d="M81.79,28.3c-20.7-1.91-30.94-14.51-46.41-19-7.37-2.11-12.59-1.59-17.41.49a31.58,31.58,0,0,0-3.42,1.75c-4.34,2.53-8.71,6.14-14.46,10a.26.26,0,0,1-.09.05c5-9.35,12.05-18.27,21.35-20.07,20.91-4.05,55.58-1.1,60.25,22.06A13.59,13.59,0,0,1,81.79,28.3Z" transform="translate(338.69 243.626)" fill="#2fdd96"/>
    <path id="Path-29" data-name="Path" d="M44.416,85.517c-14.52,4.51-23.76-8.21-35-32.07-13.21-28.06-10.18-44.29-5-50.62a6.78,6.78,0,0,1,8.52-2.12c-1.58,11.9-.27,26.44,7.62,37C29.886,50.017,42.026,68.827,44.416,85.517Z" transform="translate(496.974 335.983)" fill="#2fdd96"/>
    <path id="Path-30" data-name="Path" d="M32.81,12.77a55.92,55.92,0,0,1-9.57,16.35C9.02,26.4,2.57,17.36,0,12.21A145.45,145.45,0,0,0,13.24,0C17.16,9.83,27.32,12.2,32.81,12.77Z" transform="translate(533.76 96.8)" fill="url(#linear-gradient-16)"/>
    <path id="Path-31" data-name="Path" d="M13.21,27.461a30.77,30.77,0,0,1-13.21-2C5.92,11.311,4.49-1.6,7.11.161,10.99,2.761,14.93,8.461,13.21,27.461Z" transform="translate(559.46 53.069)" fill="url(#linear-gradient-17)"/>
    <path id="Path-32" data-name="Path" d="M23.737,17.4a31.53,31.53,0,0,1-21.28,4.2A32.79,32.79,0,0,1,.527,3.29c6.81,1.94,13-.54,17.28-3.29a32.16,32.16,0,0,0,5.93,17.4Z" transform="translate(473.403 85.6)" fill="url(#linear-gradient-18)"/>
    <path id="Path-33" data-name="Path" d="M11.89,13.91A32.12,32.12,0,0,1,0,13.01C7.1-2.77,12.56-6.16,11.89,13.91Z" transform="translate(479.83 58.48)" fill="url(#linear-gradient-19)"/>
    <circle id="Oval-6" data-name="Oval" cx="1.36" cy="1.36" r="1.36" transform="translate(367.18 245.7)" fill="#e6e6e6"/>
    <circle id="Oval-7" data-name="Oval" cx="1.36" cy="1.36" r="1.36" transform="translate(381.32 251.12)" fill="#e6e6e6"/>
    <circle id="Oval-8" data-name="Oval" cx="1.36" cy="1.36" r="1.36" transform="translate(409.36 263.02)" fill="#e6e6e6"/>
    <circle id="Oval-9" data-name="Oval" cx="0.8" cy="0.8" r="0.8" transform="translate(412.41 313.31)" fill="#e6e6e6"/>
    <circle id="Oval-10" data-name="Oval" cx="1.18" cy="1.18" r="1.18" transform="translate(418.09 304.25)" fill="#e6e6e6"/>
    <circle id="Oval-11" data-name="Oval" cx="1.18" cy="1.18" r="1.18" transform="translate(439.37 293.75)" fill="#e6e6e6"/>
    <circle id="Oval-12" data-name="Oval" cx="0.59" cy="0.59" r="0.59" transform="translate(427.73 298.84)" fill="#e6e6e6"/>
    <circle id="Oval-13" data-name="Oval" cx="0.59" cy="0.59" r="0.59" transform="translate(432.2 300.48)" fill="#e6e6e6"/>
    <circle id="Oval-14" data-name="Oval" cx="2.23" cy="2.23" r="2.23" transform="translate(401.25 251.11)" fill="#e6e6e6"/>
    <circle id="Oval-15" data-name="Oval" cx="6.05" cy="6.05" r="6.05" transform="translate(519.95 397.14)" fill="#e6e6e6"/>
    <path id="Path-34" data-name="Path" d="M12.122,5.912a23.3,23.3,0,0,1-12,1.46A5.86,5.86,0,0,1,0,6.182a6.047,6.047,0,1,1,12.09-.27Z" transform="translate(600.018 334.498)" fill="#e6e6e6"/>
    <circle id="Oval-16" data-name="Oval" cx="3.11" cy="3.11" r="3.11" transform="translate(513.72 376.09)" fill="#e6e6e6"/>
    <circle id="Oval-17" data-name="Oval" cx="3.11" cy="3.11" r="3.11" transform="translate(565.75 321.57)" fill="#e6e6e6"/>
    <circle id="Oval-18" data-name="Oval" cx="2.2" cy="2.2" r="2.2" transform="translate(500.22 357.74)" fill="#e6e6e6"/>
    <circle id="Oval-19" data-name="Oval" cx="2.2" cy="2.2" r="2.2" transform="translate(601.7 324.68)" fill="#e6e6e6"/>
    <circle id="Oval-20" data-name="Oval" cx="1.32" cy="1.32" r="1.32" transform="translate(505.5 339.94)" fill="#e6e6e6"/>
    <path id="Path-35" data-name="Path" d="M4.06,1.15A2.12,2.12,0,0,1,0,.32V0A37,37,0,0,0,4.06,1.15Z" transform="translate(581.62 322.04)" fill="#e6e6e6"/>
    <circle id="Oval-21" data-name="Oval" cx="1.32" cy="1.32" r="1.32" transform="translate(512.4 390.09)" fill="#e6e6e6"/>
    <circle id="Oval-22" data-name="Oval" cx="1.32" cy="1.32" r="1.32" transform="translate(580.3 331.3)" fill="#e6e6e6"/>
    <path id="Path-36" data-name="Path" d="M4.44,2.233a.27.27,0,0,1,0,.12A31.58,31.58,0,0,0,1.02,4.1a2.23,2.23,0,1,1,3.44-1.87Z" transform="translate(352.24 251.107)" fill="#e6e6e6"/>
    <path id="Path-37" data-name="Path" d="M113.121,84.332,93.9,68.632a49,49,0,1,0-8.6,13.29Z" transform="translate(306.149 89.488)" fill="#fff"/>
    <path id="Path-38" data-name="Path" d="M11.17,8.3s-2.94-10.14-7-8S0,12.767,0,12.767" transform="translate(378 125.113)" fill="none" stroke="#707070" stroke-miterlimit="10" stroke-width="2.42"/>
    <path id="Path-39" data-name="Path" d="M34.77,9.45,25.65,2.31s-.49,9.31-3.38,9.79S13.59-.15,10.83.53,4.36,8.53,0,0" transform="translate(339.23 123.16)" fill="none" stroke="#707070" stroke-miterlimit="10" stroke-width="2.42"/>
    <path id="Path-40" data-name="Path" d="M13.49,4.357S6.67-4.273,0,2.757" transform="translate(332.09 115.363)" fill="none" stroke="#707070" stroke-miterlimit="10" stroke-width="2.42"/>
    <path id="Path-41" data-name="Path" d="M0,5.86S8.54-1.07,10.1,2s6.49-2,6.49-2" transform="translate(364.86 157.82)" fill="none" stroke="#707070" stroke-miterlimit="10" stroke-width="2.42"/>
    <path id="Path-42" data-name="Path" d="M17.758,5.46l-5,12.74s-13.12-8-12.75-8.07,8.25-3,5-10.13l-2,4.64" transform="translate(345.762 148.36)" fill="none" stroke="#707070" stroke-miterlimit="10" stroke-width="2.42"/>
    <path id="Path-43" data-name="Path" d="M13.04,5.76,0,0" transform="translate(328.67 142.34)" fill="none" stroke="#707070" stroke-miterlimit="10" stroke-width="2.42"/>
    <path id="Path-44" data-name="Path" d="M11,9.04,1.54,3.72,2.37,0,0,.53" transform="translate(321.68 140.24)" fill="none" stroke="#707070" stroke-miterlimit="10" stroke-width="2.42"/>
    <path id="Path-45" data-name="Path" d="M.976.693c6.69-6.88,47.71,40.05,86.73,27,10.87-3.64,18.32-10.84,29.13-7.84,12.47,3.47,20.58,20.72,15.91,33-6.46,17.08-38.1,25.88-68.62,18.21C18.546,59.633-5.244,7.083.976.693Z" transform="translate(259.154 493.637)" fill="#dde6fa"/>
    <path id="Path-46" data-name="Path" d="M56.206,52.711s6.79-.49,8.64-8.45c0,0,11.95-4.51,8.15-17.39s-15.67-7-15.67-7,6.12-13.51-9.45-18.56-19.73,6.12-19.73,6.12-13-6.57-22.41,3.18-.8,23-.8,23-6,5.17-4.77,11.89c2.24,12.59,17.38,18.16,17.38,18.16Z" transform="translate(113.554 54.139)" fill="url(#linear-gradient-20)"/>
    <path id="Path-47" data-name="Path" d="M0,0,.3,17.53l28.94,4.2L28.06,10.38C19.57,12.8,4.36,6.4,0,0Z" transform="translate(130.7 119.27)" fill="#b48f87"/>
    <path id="Path-48" data-name="Path" d="M3.916,0,.086,38.84c-1.24,12.76,11.2,22.26,24.6,18.78a19.29,19.29,0,0,0,14.1-16.92l3.62-36.93Z" transform="translate(129.914 73.62)" fill="#f0beb4"/>
    <path id="Path-49" data-name="Path" d="M3.277,24.18l26.77-21L27.547,0,.777,21a2,2,0,0,0-.34,2.83h0a2,2,0,0,0,2.84.35Z" transform="translate(114.283 85.68)" fill="#fff"/>
    <path id="Path-50" data-name="Path" d="M2.5,4.14,3.72,1.59,4.49,0,2.75.37,0,.96,2.5,4.14Z" transform="translate(141.83 84.68)" fill="url(#linear-gradient-3)"/>
    <path id="Path-51" data-name="Path" d="M.97,1.59,1.74,0,0,.37.97,1.59Z" transform="translate(144.58 84.68)" fill="url(#linear-gradient-22)"/>
    <path id="Path-52" data-name="Path" d="M2.84,22.6l26.77-21L28.36,0,0,22.3H0a2,2,0,0,0,2.84.3Z" transform="translate(114.72 87.26)" fill="url(#linear-gradient-23)"/>
    <path id="Path-53" data-name="Path" d="M8.954,11.614a2.69,2.69,0,0,1-1.75,2.46C2.334,15.7-3.216,2.074,2.284.4c3.09-.92,4.85-.12,5.84.9a4.48,4.48,0,0,1,1.16,3.31Z" transform="translate(123.576 98.046)" fill="#f0beb4"/>
    <ellipse id="Oval-23" data-name="Oval" cx="2.88" cy="1.17" rx="2.88" ry="1.17" transform="translate(148.511 103.24) rotate(-84.41)" fill="#1b4736"/>
    <ellipse id="Oval-24" data-name="Oval" cx="2.88" cy="1.17" rx="2.88" ry="1.17" transform="translate(162.752 104.832) rotate(-84.41)" fill="#1b4736"/>
    <path id="Path-54" data-name="Path" d="M2.82,0S5.63,10.12,4.71,11.81,0,11.7,0,11.7" transform="translate(155.46 101.62)" fill="none" stroke="#fff" stroke-miterlimit="10" stroke-width="1"/>
    <path id="Path-55" data-name="Path" d="M.42,0,0,19.66S8.13,15.29,7.46,7.15c0,0,4.4,6.1,9,3.45,0,0,6.65,5.83,14.05-.73,0,0-.74,11.82,8.37,12.63L41.37,3.58Z" transform="translate(132 73.09)" fill="url(#linear-gradient-24)"/>
    <path id="Path-56" data-name="Path" d="M3.49,10.235s19.62-2.57,25.68-5.87,18-8.8,24.76,2-4.77,8.8-10.09,6-8.62,4.22-8.62,4.22L21.7,37.135,5.51,32.985,0,33.795V18.375Z" transform="translate(297.68 220.765)" fill="url(#linear-gradient-25)"/>
    <path id="Path-57" data-name="Path" d="M114.77,104.46s-57.48,9.62-94.11-1c-.4-.1-.78-.22-1.17-.34-1.41-.43-2.79-.89-4.13-1.39-1.15-.43-2.28-.88-3.37-1.35l-1.56-13-.57-4.79-.15-1.27L0,0S18.4,22.85,27.76,62.38a10.8,10.8,0,0,0,7.55,7.93c15,4.18,53.58,14,77.44,11.4Z" transform="translate(188.42 149.32)" fill="url(#linear-gradient-26)"/>
    <path id="Path-58" data-name="Path" d="M0,0,17.36,45.62A20.33,20.33,0,0,0,35.25,58.7l78.24,4.33" transform="translate(188.42 176.3)" fill="none" stroke="#64edff" stroke-miterlimit="10" stroke-width="0.97"/>
    <path id="Path-59" data-name="Path" d="M0,0,.15,1.27a14.91,14.91,0,0,1,11,14.36,14.66,14.66,0,0,1-1.37,6.21c.39.12.77.24,1.17.34a15.9,15.9,0,0,0,1.4-6.55A16.09,16.09,0,0,0,0,0Z" transform="translate(198.13 230.57)" fill="#64edff"/>
    <path id="Path-60" data-name="Path" d="M6.1,9.53a10.4,10.4,0,0,1-1.17,4.82c-1.15-.43-2.28-.88-3.37-1.35L0,0A10.58,10.58,0,0,1,6.1,9.53Z" transform="translate(198.9 236.67)" fill="url(#linear-gradient-27)"/>
    <path id="Path-61" data-name="Path" d="M86.38,2.444l-.08,2.67a4.34,4.34,0,0,1-4.34,4.21H3.9a3.81,3.81,0,0,1-3.81-3.7L0,2.444S70.43-3.056,86.38,2.444Z" transform="translate(173.79 597.456)" fill="url(#linear-gradient-28)"/>
    <path id="Path-62" data-name="Path" d="M95.33,80.61H8.95L7.34,67.17h0L6.28,58.39,0,6.04,17.66,4.23,40.16,0l.5,50.56S91.21,55.76,95.33,80.61Z" transform="translate(164.84 519.29)" fill="url(#linear-gradient-29)"/>
    <path id="Path-63" data-name="Path" d="M42.09,61.368c-6.43,2.36-17.82,4.06-26.88,3.85-4.22-.1-5.54-2.92-6.91-7l-8.26-44c-.56-4.57,4.89-9.6,9.61-10.07l27.44-4c5.2-.95,11.37,2.78,11.42,7.91l-1.65,45.95C46.89,57.4,45.42,60.138,42.09,61.368Z" transform="translate(160.4 510.472)" fill="url(#linear-gradient-30)"/>
    <path id="Path-64" data-name="Path" d="M132.105,196.54c-20.1,9.54-40.14,6-40.14,6-6.32-35.77-8.94-59.19-12.24-83.77s-9-56.49-9-56.49a401.69,401.69,0,0,0-10.81,60.53c-3.3,33.37-18,88.4-18,88.4-20.27,5.13-41.81-3.67-41.81-3.67-.73-25.67,2.57-74.47,2.57-74.47,1.46-43.28,15.3-128.6,15.3-128.6L123.105,0l5,109.92.06,1.1.27,6,1,22.83.27,6,.06,1.1Z" transform="translate(72.895 319.46)" fill="url(#linear-gradient-31)"/>
    <path id="Path-65" data-name="Path" d="M0,0S11.62,22.63,19.84,34.85" transform="translate(178.16 329.15)" fill="none" stroke="#64edff" stroke-miterlimit="10" stroke-width="0.97"/>
    <path id="Path-66" data-name="Path" d="M15.63,0S11.09,21.45,0,24" transform="translate(87.48 327.63)" fill="none" stroke="#64edff" stroke-miterlimit="10" stroke-width="0.97"/>
    <path id="Path-67" data-name="Path" d="M66.2,0,21.27,5.76a23,23,0,0,0-19,16.05C-.95,32.31-.37,50.1,1.69,68.55,4.5,93.64,9.6,138.37,14.08,161.9a21,21,0,0,0,17,16.73L49.6,181.9Z" transform="translate(52.73 141.78)" fill="url(#linear-gradient-32)"/>
    <rect id="Rectangle-5" data-name="Rectangle" width="109.82" height="79.66" rx="6.25" transform="translate(48.228 299.215) rotate(36.8)" fill="url(#linear-gradient-33)"/>
    <rect id="Rectangle-6" data-name="Rectangle" width="49.43" height="17.49" rx="2.2" transform="translate(111.578 367.51) rotate(126.8)" fill="#e6e6e6"/>
    <path id="Path-68" data-name="Path" d="M36.277,76.28c-5.91,3.25-9-16.75-12.28-13.13s-5.06,9.16.25,13.48c0,0-9.65,3.37-12-4.63a7.63,7.63,0,0,1-3-.71,4.9,4.9,0,0,1-3-4.91s-3.12-.07-4.28-4.75c-1.22-4.87-4-16,.53-20.92.08-.1-.29-13.91-.54-22.57V16.82c-.09-3.28-.15-5.55-.15-5.55L31.117,0,30.2,14.29l-.09,1.32-1.3,19.93-.4,8.11s7.31,9.16,5.73,17.49S42.187,73,36.277,76.28Z" transform="translate(41.593 335.24)" fill="url(#linear-gradient-34)"/>
    <path id="Path-69" data-name="Path" d="M.128,2.715A3.15,3.15,0,0,1,4.578.295c3.74,1.74,10.5,5.56,10.44,10.34-.09,6.61-.89,9.54-3.06,7.71s-1.62-3.4-3.36-3-5.23-1.47-5.13-3h-.86A2.15,2.15,0,0,1,.4,10.5a31.17,31.17,0,0,1-.27-7.79Z" transform="translate(45.692 383.195)" fill="none" stroke="gray" stroke-miterlimit="10" stroke-width="1.1"/>
    <path id="Path-70" data-name="Path" d="M86.547,7.43l6.27,1.16a15.8,15.8,0,0,1,12.49,11.95c4.72,20.07,7.71,46.08,8.18,79.33.42,30.29-.55,60.63-1.11,75.09a15,15,0,0,1-9.26,13.3c-13.37,5.57-42.35,13.31-90.11,5.29a14.2,14.2,0,0,1-11.83-13.48c-1.16-33.13-3.63-129.47,5.8-160.7a14.07,14.07,0,0,1,9.81-9.45L28.4,6.74,57.307,0Z" transform="translate(86.823 135.77)" fill="url(#linear-gradient-35)"/>
    <path id="Path-71" data-name="Path" d="M59.11,0,47.52,100.11,45.33,103a48.34,48.34,0,0,0-9.58,26.41l-5,68.45L2.14,199.51,0,132.36v-5.81a133.3,133.3,0,0,1,2.19-20.83c.28-1.54.6-3.07.94-4.6.08-.36.16-.73.25-1.08a132.83,132.83,0,0,1,4.77-16c5.33-14.5,12.36-32.92,18.46-46.66C38.36,11,59.11,0,59.11,0Z" transform="translate(41.25 147)" fill="url(#linear-gradient-36)"/>
    <path id="Path-72" data-name="Path" d="M4.69,0S16.51,127.09,0,180.58" transform="translate(144.54 141)" fill="none" stroke="#64edff" stroke-miterlimit="10" stroke-width="0.97"/>
    <path id="Path-73" data-name="Path" d="M50.71,11.064s-1.82-.24-4.81-.57l-.56-.05c-2.24-.24-5.07-.51-8.25-.76l-.56-.05c-2.41-.17-5-.35-7.72-.47h-.55c-2.68-.13-5.46-.2-8.24-.21h-.59c-2.26,0-4.51,0-6.71.13h-.63c-2.19.1-4.33.26-6.35.5l-.66.11c-1.79.21-3.5.49-5.08.83l2.87-3.47a16.09,16.09,0,0,1,6.81-4.83c.3-.12.61-.22.91-.31a16.5,16.5,0,0,1,2.39-.54l3-.43.66-.08,1.58-.23c1.7-.26,3.41-.42,5.13-.53h.62a53.53,53.53,0,0,1,5.52-.06,5.06,5.06,0,0,1,.55,0,59,59,0,0,1,6.35.59,1.481,1.481,0,0,1,.58.08,58.72,58.72,0,0,1,6.28,1.28c.22.05.44.11.65.18l1.29.35a5.57,5.57,0,0,1,3.74,3.53Z" transform="translate(118.92 131.306)" fill="url(#linear-gradient-37)"/>
    <path id="Path-74" data-name="Path" d="M0,3.43V14.3A12,12,0,0,0,5.78,24.6a38.9,38.9,0,0,0,21.27,5.65,48.77,48.77,0,0,0,22.8-6.37A10.14,10.14,0,0,0,55,14.82L54.71,0Z" transform="translate(58.42 618.62)" fill="url(#linear-gradient-38)"/>
    <path id="Path-75" data-name="Path" d="M46.2,42.13,41.939,58l12,30.06a12.07,12.07,0,0,1-4.73,14.66l-3.36,2.13A35.86,35.86,0,0,1,3.3,102a9.38,9.38,0,0,1-2.24-11.47l16.36-31.61-1-19.82L14.579,0c13.7,21.28,44.56-7,41.82,3.67C54.739,10.11,49.839,28.51,46.2,42.13Z" transform="translate(58.421 527)" fill="url(#linear-gradient-25)"/>
    <circle id="Oval-25" data-name="Oval" cx="56.4" cy="56.4" r="56.4" transform="translate(88.75 33.73)" fill="none" stroke="#64edb2" stroke-miterlimit="10" stroke-width="1.95"/>
    <path id="Path-76" data-name="Path" d="M0,3.066S3.45-.154,6.45.006,9.3,3.3,7.24,2.8,4.12,1.476,0,3.066Z" transform="translate(144.42 93.684)" fill="#1b4736"/>
    <path id="Path-77" data-name="Path" d="M8.411,4.192S5.581.412,2.6.032s-3.39,2.74-1.28,2.61S4.631,1.922,8.411,4.192Z" transform="translate(161.239 95.078)" fill="#1b4736"/>
    <path id="Path-78" data-name="Path" d="M5.52,0A58.39,58.39,0,0,0,.66,7.7L0,7.83A53.08,53.08,0,0,1,4.6.36,4.6,4.6,0,0,1,5.52,0Z" transform="translate(124 133.17)" fill="#878787"/>
    <path id="Path-79" data-name="Path" d="M4.53,0c-1,2-2.58,5.34-3.9,8.23H0C1.29,5.43,2.86,2.16,3.87.06Z" transform="translate(131.01 132.12)" fill="#878787"/>
    <path id="Path-80" data-name="Path" d="M4.52,0C3.7,1.74,1.96,5.49.59,8.88H0c1.32-3.31,3-7,3.9-8.86Z" transform="translate(138.35 131.34)" fill="#878787"/>
    <path id="Path-81" data-name="Path" d="M1.76,0c-.23,1.83-.73,5.71-1.21,9.17H0c.48-3.45,1-7.31,1.21-9.16A5.06,5.06,0,0,1,1.76,0Z" transform="translate(147.18 131.297)" fill="#878787"/>
    <path id="Path-82" data-name="Path" d="M.72,9.1.16,9.05A27.15,27.15,0,0,0,0,0,1.481,1.481,0,0,1,.58.08,27.36,27.36,0,0,1,.72,9.1Z" transform="translate(155.28 131.9)" fill="#878787"/>
    <path id="Path-83" data-name="Path" d="M2.67,8.55,2.11,8.5A42.46,42.46,0,0,0,0,0C.22.05.44.11.65.18A41.74,41.74,0,0,1,2.67,8.55Z" transform="translate(162.15 133.25)" fill="#878787"/>
    <path id="Path-84" data-name="Path" d="M0,7.52S54.61,37.25,93.23,0" transform="translate(93.45 147.62)" fill="none" stroke="#64edff" stroke-miterlimit="10" stroke-width="0.97"/>
    <path id="Path-85" data-name="Path" d="M0,0S59.86,17.65,112.08,3.13" transform="translate(87.48 297.54)" fill="none" stroke="#64edff" stroke-miterlimit="10" stroke-width="0.97"/>
    <path id="Path-86" data-name="Path" d="M4.4,14.045c-3.6-1-5.48-6.5-3.76-9.83,1.24-2.4,4.2-4.08,10.84-2.37,14.13,3.65,70.4,4.84,96.45-1.64a7.27,7.27,0,0,1,7.17,2.26l.06.06a7.33,7.33,0,0,1,1.21,7.86h0a7.29,7.29,0,0,1-5.51,4.24C96.825,16.885,55.085,28.205,4.4,14.045Z" transform="translate(84.915 312.255)" fill="url(#linear-gradient-40)"/>
    <circle id="Oval-26" data-name="Oval" cx="6.65" cy="6.65" r="6.65" transform="translate(102.67 245.4)" fill="#b5b5b5"/>
    <circle id="Oval-27" data-name="Oval" cx="5.85" cy="5.85" r="5.85" transform="translate(103.47 246.2)" fill="#c9c9c9"/>
    <circle id="Oval-28" data-name="Oval" cx="4.82" cy="4.82" r="4.82" transform="translate(104.5 248.24)" fill="#a1a1a1"/>
    <path id="Path-87" data-name="Path" d="M4.689,12.66s-10.06,9.9-.71,21.09S24.639,28.61,29.229,0" transform="translate(79.841 252.79)" fill="none" stroke="#d6d6d6" stroke-linecap="round" stroke-miterlimit="10" stroke-width="5.5"/>
    <path id="Path-88" data-name="Path" d="M45.482,3.926c7.16-1.84-6.41,28.84-10.45,44-1.12,4.16-2.12,7.91-2.92,10.89a6.62,6.62,0,0,1-7.69,4.8,32.12,32.12,0,0,0-13.72.26,6.64,6.64,0,0,1-8.06-6.19L2,44.5,0,3.016A2.9,2.9,0,0,1,4.092.256C21.422,8.076,29.462,8.046,45.482,3.926Z" transform="translate(70.768 521.224)" fill="url(#linear-gradient-41)"/>
    <path id="Path-89" data-name="Path" d="M3.43,0c-.09.35-.17.72-.25,1.08a15.24,15.24,0,0,1,11.955,16.5A15.24,15.24,0,0,1,0,31.22v1.1A16.34,16.34,0,0,0,3.43,0Z" transform="translate(41.2 247)" fill="#64edff"/>
    <path id="Path-90" data-name="Path" d="M10.48,10.3A10.53,10.53,0,0,1,0,20.83,133.3,133.3,0,0,1,2.19,0a10.53,10.53,0,0,1,8.29,10.3Z" transform="translate(41.25 252.7)" fill="url(#linear-gradient-42)"/>
    <path id="Path-91" data-name="Path" d="M48.82,0S15.82,36.17,0,91.9" transform="translate(44.63 155.14)" fill="none" stroke="#64edff" stroke-miterlimit="10" stroke-width="0.97"/>
    <path id="Path-92" data-name="Path" d="M28.19,0,28.1,1.32,0,3.85V2.53Z" transform="translate(43.58 349.53)" fill="#64edff"/>
    <path id="Shape-4" data-name="Shape" d="M1.427,25.889a18.72,18.72,0,1,1,17.3,11.552A18.721,18.721,0,0,1,1.427,25.889Z" transform="translate(84.379 431.099)" fill="#64edff"/>
    <circle id="Oval-29" data-name="Oval" cx="11.65" cy="11.65" r="11.65" transform="translate(91.46 438.18)" fill="url(#linear-gradient-3)"/>
    <path id="Path-93" data-name="Path" d="M22.253,36.065a18.52,18.52,0,0,1-3.1.27,17.62,17.62,0,1,1,0-35.23,10.906,10.906,0,0,1,1.51.07L20.6.075c-.47,0-1-.07-1.45-.07a18.72,18.72,0,1,0,0,37.43,18.29,18.29,0,0,0,3.16-.27Z" transform="translate(180.407 429.305)" fill="#64edff"/>
    <path id="Path-94" data-name="Path" d="M14.435,22.96a12,12,0,0,1-2.83.34A11.65,11.65,0,1,1,13.385.13Z" transform="translate(187.955 436.38)" fill="url(#linear-gradient-44)"/>
    <path id="Path-95" data-name="Path" d="M0,69.37,6.35,0" transform="translate(73.49 422.75)" fill="none" stroke="gray" stroke-miterlimit="10" stroke-width="1.1"/>
    <path id="Path-96" data-name="Path" d="M.733.09a14,14,0,0,0,8.08,2.6.63.63,0,0,1,.44,1.08C7.063,5.87,2.113,9.38.013.57A.46.46,0,0,1,.733.09Z" transform="translate(146.107 114.7)" fill="#fff"/>
    <circle id="Oval-30" data-name="Oval" cx="9.23" cy="9.23" r="9.23" transform="translate(220.8 292.74)" fill="none" stroke="#fcfcfc" stroke-miterlimit="10" stroke-width="1"/>
    <path id="Path-97" data-name="Path" d="M0,.007s6.13,2.58,17.28,0c0,0,3.71-.5,3.3,6.72s3.92,26.61,3.5,29.29S11.87,43.3,7.15,38.107" transform="translate(161.55 530.563)" fill="none" stroke="#64edff" stroke-miterlimit="10" stroke-width="0.97"/>
  </g>
</svg>
