<svg xmlns="http://www.w3.org/2000/svg" xmlns:xlink="http://www.w3.org/1999/xlink" width="268.931" height="44.79" viewBox="0 0 268.931 44.79"><defs><clipPath id="a"><path d="M0,44.79H268.931V0H0Z" transform="translate(0 0)" fill="none"/></clipPath></defs><g transform="translate(0 0)"><path d="M13.034,26.069A13.06,13.06,0,0,1,3.68,22.586Q0,19.1,0,13.106A13.175,13.175,0,0,1,3.483,3.7,12.218,12.218,0,0,1,12.819,0a14.35,14.35,0,0,1,5.53,1.113,12.343,12.343,0,0,1,4.6,3.268L19.354,7.4a9.108,9.108,0,0,0-6.536-2.621A7.132,7.132,0,0,0,7.432,7.038a8.439,8.439,0,0,0-2.154,6.069A8.609,8.609,0,0,0,7.4,19.067a7.191,7.191,0,0,0,5.637,2.37A9.784,9.784,0,0,0,18.2,20V16.23H12.46V11.921H23.052V22.909a13.436,13.436,0,0,1-4.452,2.3,18.158,18.158,0,0,1-5.566.862" transform="translate(55.57 9.24)" fill="#fff"/><path d="M10.054,0a1.05,1.05,0,0,1,.359.036v5.1Q9.946,5.1,9.192,5.1a4.289,4.289,0,0,0-3.3,1.275A4.633,4.633,0,0,0,4.7,9.659V17.81H0V.288H4.7V2.873h.036A6.254,6.254,0,0,1,10.054,0" transform="translate(82.127 17.247)" fill="#fff"/><path d="M9.014,18.1a8.872,8.872,0,0,1-6.465-2.514A8.858,8.858,0,0,1,0,9.014,8.953,8.953,0,0,1,2.46,2.532,8.351,8.351,0,0,1,8.689,0a8.222,8.222,0,0,1,6.194,2.5A8.883,8.883,0,0,1,17.271,8.87a7.1,7.1,0,0,1-.107,1.687H4.847a4.494,4.494,0,0,0,1.615,2.478,4.637,4.637,0,0,0,2.874.9h.09a5.118,5.118,0,0,0,4.111-1.975l3.052,2.836A9.137,9.137,0,0,1,9.014,18.1ZM8.833,4.129a4.056,4.056,0,0,0-2.514.79A4.071,4.071,0,0,0,4.883,7.181H12.6A3.617,3.617,0,0,0,8.833,4.129Z" transform="translate(94.229 17.247)" fill="#fff"/><path d="M9.014,18.1a8.872,8.872,0,0,1-6.465-2.514A8.858,8.858,0,0,1,0,9.014,8.953,8.953,0,0,1,2.46,2.532,8.351,8.351,0,0,1,8.689,0a8.222,8.222,0,0,1,6.194,2.5A8.883,8.883,0,0,1,17.271,8.87a7.1,7.1,0,0,1-.107,1.687H4.847a4.494,4.494,0,0,0,1.615,2.478,4.637,4.637,0,0,0,2.874.9h.09a5.118,5.118,0,0,0,4.111-1.975l3.052,2.836A9.137,9.137,0,0,1,9.014,18.1ZM8.833,4.129a4.056,4.056,0,0,0-2.514.79A4.071,4.071,0,0,0,4.883,7.181H12.6A3.617,3.617,0,0,0,8.833,4.129Z" transform="translate(113.792 17.247)" fill="#fff"/><path d="M10.377,0q6.391,0,6.392,7.4V17.81h-4.7V8.582a5.355,5.355,0,0,0-.826-3.393A3.137,3.137,0,0,0,8.689,4.2,3.655,3.655,0,0,0,5.781,5.441,5.228,5.228,0,0,0,4.7,8.977V17.81H0V.288H4.7V2.55h.071A6.988,6.988,0,0,1,10.377,0" transform="translate(133.564 17.247)" fill="#fff"/><path d="M13,26.069a13.159,13.159,0,0,1-9.246-3.447Q0,19.174,0,13.142A13.3,13.3,0,0,1,3.465,3.734Q6.93,0,13,0A13.119,13.119,0,0,1,23.161,4.883l-3.7,3.16A8.3,8.3,0,0,0,13,4.811a7.332,7.332,0,0,0-5.548,2.28,8.408,8.408,0,0,0-2.172,6.05A8.218,8.218,0,0,0,7.433,19,7.285,7.285,0,0,0,13,21.293a8.025,8.025,0,0,0,6.463-3.231l3.7,3.2A12.423,12.423,0,0,1,13,26.069" transform="translate(153.119 9.24)" fill="#fff"/><path d="M9.3,18.1a9.188,9.188,0,0,1-6.714-2.55A8.775,8.775,0,0,1,0,9.05a8.779,8.779,0,0,1,2.587-6.5A9.191,9.191,0,0,1,9.3,0a9.348,9.348,0,0,1,6.715,2.514A8.689,8.689,0,0,1,18.637,9.05a8.687,8.687,0,0,1-2.622,6.536A9.348,9.348,0,0,1,9.3,18.1Zm0-13.9A4.285,4.285,0,0,0,6.015,5.585,4.937,4.937,0,0,0,4.741,9.05,4.917,4.917,0,0,0,6.033,12.5,4.274,4.274,0,0,0,9.3,13.9a4.343,4.343,0,0,0,3.25-1.364,4.841,4.841,0,0,0,1.31-3.483,4.866,4.866,0,0,0-1.292-3.5A4.358,4.358,0,0,0,9.3,4.2Z" transform="translate(177.758 17.247)" fill="#fff"/><path d="M7.11,18.1A10.577,10.577,0,0,1,0,15.548l2.3-3.267a6.863,6.863,0,0,0,4.848,2.047,2.755,2.755,0,0,0,1.58-.4A1.211,1.211,0,0,0,9.3,12.891a1.138,1.138,0,0,0-.682-.97,14.23,14.23,0,0,0-2.514-.97A11.3,11.3,0,0,1,2.137,8.816,4.554,4.554,0,0,1,.718,5.243a4.642,4.642,0,0,1,1.8-3.788A6.954,6.954,0,0,1,7.039,0,10.1,10.1,0,0,1,13.43,2.191L11.168,5.637a6.058,6.058,0,0,0-4.2-1.867,2.177,2.177,0,0,0-1.185.341,1.1,1.1,0,0,0-.538.987,1.139,1.139,0,0,0,.628.916A11.346,11.346,0,0,0,7.9,6.966q1.436.539,2.119.808a13.9,13.9,0,0,1,1.616.79,4.381,4.381,0,0,1,1.31,1.005,5.068,5.068,0,0,1,.682,1.275,4.968,4.968,0,0,1,.305,1.8,4.976,4.976,0,0,1-1.741,3.95A7.559,7.559,0,0,1,7.11,18.1" transform="translate(197.412 17.247)" fill="#fff"/><path d="M21.364,0q6.177,0,6.176,7.612v10.2h-4.7V8.762q0-4.56-3.052-4.56a3.164,3.164,0,0,0-2.568,1.274,5.572,5.572,0,0,0-1.024,3.573V17.81h-4.7V8.762Q11.49,4.2,8.4,4.2A3.27,3.27,0,0,0,5.726,5.476,5.572,5.572,0,0,0,4.7,9.049V17.81H0V.288H4.7V2.621h.035A6.43,6.43,0,0,1,9.982,0a5.462,5.462,0,0,1,5.207,2.8h.071a7.312,7.312,0,0,1,6.1-2.8" transform="translate(213.659 17.247)" fill="#fff"/><path d="M0,44.79H268.931V0H0Z" transform="translate(0 0)" fill="none"/><g clip-path="url(#a)"><path d="M5.243,25.745H.539V8.222h4.7V25.744Zm-2.335-20A2.83,2.83,0,0,1,.862,4.9,2.743,2.743,0,0,1,0,2.873,2.754,2.754,0,0,1,.862.843,2.839,2.839,0,0,1,2.908,0,2.883,2.883,0,0,1,4.991.843a2.754,2.754,0,0,1,.861,2.029A2.743,2.743,0,0,1,4.991,4.9,2.875,2.875,0,0,1,2.908,5.745Z" transform="translate(244.025 9.312)" fill="#fff"/><path d="M9.012,18.1a8.8,8.8,0,0,1-6.481-2.514A8.8,8.8,0,0,1,0,9.049,8.741,8.741,0,0,1,2.567,2.514,9.119,9.119,0,0,1,9.229,0a10.3,10.3,0,0,1,4.165.862A8.419,8.419,0,0,1,16.661,3.34L13.5,6.069A5.181,5.181,0,0,0,9.408,4.2,4.463,4.463,0,0,0,6.033,5.548,4.8,4.8,0,0,0,4.74,9.013a4.865,4.865,0,0,0,1.31,3.519A4.492,4.492,0,0,0,9.444,13.9a5.2,5.2,0,0,0,4.093-1.8l3.2,2.836a9,9,0,0,1-3.214,2.281,11.042,11.042,0,0,1-4.506.88" transform="translate(252.199 17.247)" fill="#fff"/><path d="M0,12.184V0L11.189,1Z" transform="translate(22.394 32.605)" fill="#05aa63"/><path d="M22.387,12.95H0V0L22.4,1.738Z" transform="translate(11.189 20.674)" fill="#10c680"/><path d="M25.136,11.209,0,13.959,13.931.025,25.136,0Z" transform="translate(19.645 0)" fill="#64edb2"/><path d="M33.588,11.2H0L11.193,0H44.775Z" transform="translate(0.001 11.208)" fill="#2fdd96"/></g></g></svg>